<svg width="185" height="34" viewBox="0 0 185 34" fill="none" xmlns="http://www.w3.org/2000/svg">
<path d="M43.0082 24.6447V22.6093H51.0261C51.5432 22.6093 51.8017 22.3485 51.8017 21.8268V19.9235C51.8017 19.4371 51.5836 19.1504 51.1472 19.0635L46.109 18.0416C44.0363 17.6245 43 16.2247 43 13.8421V12.3811C43 9.46039 44.4476 8 47.3428 8H53.263L54.9958 9.35694V11.3907H47.5064C46.9893 11.3907 46.7308 11.6515 46.7308 12.1732V13.8685C46.7308 14.3637 46.9468 14.641 47.3771 14.7285L52.4186 15.7454C54.4913 16.1625 55.5276 17.5624 55.5276 19.945V21.6139C55.5276 24.5347 54.08 25.995 51.1848 25.995H44.741L43.0082 24.6447ZM58.6203 21.7757V8.00496H62.1874V12.2309H66.6333V15.3674H62.1874V22.0365C62.1874 22.5934 62.4629 22.8685 63.0138 22.8619H66.8902V24.8263L65.339 26H62.8076C60.016 26 58.6203 24.5919 58.6203 21.7757ZM73.1442 26C70.3526 26 68.9563 24.6178 68.9552 21.8533C68.9541 19.0888 70.3505 17.7082 73.1442 17.7115H76.7081V16.1994C76.7081 15.6436 76.4321 15.3652 75.8801 15.3641H70.4034V13.403L71.9546 12.2309H76.0912C78.8828 12.2309 80.2785 13.639 80.2785 16.4552V26H73.1442ZM72.524 22.0382C72.524 22.595 72.7995 22.8701 73.3504 22.8635H76.7081V20.5178H73.3504C72.7984 20.5178 72.5229 20.7962 72.524 21.3531V22.0382ZM83.7884 26V14.0038C84.4266 12.8219 85.6505 12.2309 87.4603 12.2309H90.2519L91.8031 13.403V15.3591H88.3128C87.8481 15.3591 87.5296 15.4725 87.3572 15.6992V26H83.7884ZM94.2412 21.7757V8.00496H97.8166V12.2309H102.262V15.3674H97.8166V22.0365C97.8166 22.5934 98.092 22.8685 98.6429 22.8619H102.521V24.8263L100.97 26H98.4285C95.637 26 94.2412 24.5919 94.2412 21.7757Z" fill="white"/>
<path d="M105.922 26V8.00165H118.217V11.3933H109.673V15.8268H117.436V19.2168H109.673V26H105.922ZM120.761 21.7745V12.2271H124.356V22.0354C124.356 22.5924 124.634 22.8676 125.19 22.861H128.992V12.2271H132.587V26H124.987C122.175 26 120.77 24.5915 120.77 21.7745H120.761ZM136.227 21.7745V8H139.827V12.2271H144.312V15.3645H139.827V22.0354C139.827 22.5924 140.105 22.8676 140.661 22.861H144.569V24.826L143.006 26H140.455C137.642 26 136.236 24.5915 136.236 21.7745H136.227ZM147.275 21.7745V12.2271H150.874V22.0354C150.874 22.5924 151.152 22.8676 151.708 22.861H155.507V12.2271H159.102V26H151.496C148.683 26 147.276 24.5915 147.276 21.7745H147.275ZM162.745 26V14.0005C163.389 12.8183 164.622 12.2271 166.445 12.2271H169.258L170.821 13.3995V15.3562H167.301C166.833 15.3562 166.511 15.4696 166.337 15.6964V26H162.745ZM173.173 21.7745V16.4526C173.173 13.6356 174.58 12.2271 177.394 12.2271H180.779C183.593 12.2271 185 13.6356 185 16.4526V20.47H176.761V22.0354C176.761 22.5924 177.039 22.8676 177.595 22.861H184.472V24.826L182.909 26H177.39C174.575 26 173.168 24.5915 173.169 21.7745H173.173ZM176.767 17.6465H181.405V16.1851C181.405 15.6292 181.127 15.3507 180.571 15.3496H177.603C177.048 15.3496 176.77 15.6281 176.769 16.1851L176.767 17.6465Z" fill="white"/>
<path d="M22.6062 3.41551C21.0852 2.12611 19.3313 1.15423 17.4439 0.554962C16.6239 0.29884 15.7805 0.128451 14.9268 0.0464193C11.9403 -0.234027 9.06273 0.778385 6.61151 2.48537C4.78027 3.74916 3.22509 5.38677 2.04396 7.29502C0.58915 9.67787 -0.166619 12.4795 0.0310156 15.2952C0.204861 17.7398 0.900239 19.9263 1.93233 21.9465C3.18676 24.4013 4.88313 26.5121 6.6902 28.5538C8.42865 30.5234 10.3108 33.0035 12.8736 33.8271C16.0175 34.8367 18.9692 31.1853 20.8412 29.0801C20.9977 28.9053 21.1523 28.7295 21.3078 28.5538C23.114 26.5121 24.8104 24.4013 26.0657 21.9465C27.0978 19.9263 27.7932 17.7398 27.967 15.2952C28.3028 10.6669 26.0419 6.30411 22.6062 3.41551ZM7.64178 20.8742C4.83097 20.8742 2.55177 18.5157 2.55177 15.6074C2.55177 12.6992 4.83097 10.3407 7.64178 10.3407C10.4526 10.3407 12.7327 12.6983 12.7327 15.6074C12.7327 18.5166 10.4535 20.8742 7.64178 20.8742ZM20.3691 20.8742C17.5574 20.8742 15.2782 18.5157 15.2782 15.6074C15.2782 12.6992 17.5574 10.3407 20.3691 10.3407C23.1808 10.3407 25.4591 12.6983 25.4591 15.6074C25.4591 18.5166 23.1799 20.8742 20.3691 20.8742Z" fill="white"/>
</svg>
