<?xml version="1.0" encoding="UTF-8"?>
<!DOCTYPE svg PUBLIC "-//W3C//DTD SVG 1.1//EN" "http://www.w3.org/Graphics/SVG/1.1/DTD/svg11.dtd">
<svg xmlns="http://www.w3.org/2000/svg" version="1.1" width="96px" height="96px" style="shape-rendering:geometricPrecision; text-rendering:geometricPrecision; image-rendering:optimizeQuality; fill-rule:evenodd; clip-rule:evenodd" xmlns:xlink="http://www.w3.org/1999/xlink">
<g><path style="opacity:0.019" fill="#fffcfe" d="M 76.5,8.5 C 74.0637,8.68299 71.897,8.01632 70,6.5C 69.6174,7.05596 69.1174,7.38929 68.5,7.5C 65.3694,5.28326 61.8694,3.61659 58,2.5C 56.6015,3.05085 55.2682,3.38419 54,3.5C 53.3333,2.83333 52.6667,2.16667 52,1.5C 51.5831,2.75598 50.7498,3.42265 49.5,3.5C 47.983,2.26506 46.3163,2.26506 44.5,3.5C 43.4826,0.972034 42.3159,0.972034 41,3.5C 39.7318,3.38419 38.3985,3.05085 37,2.5C 33.1306,3.61659 29.6306,5.28326 26.5,7.5C 25.8826,7.38929 25.3826,7.05596 25,6.5C 23.103,8.01632 20.9363,8.68299 18.5,8.5C 31.8514,0.720993 46.1847,-1.44567 61.5,2C 66.9728,3.31556 71.9728,5.48223 76.5,8.5 Z"/></g>
<g><path style="opacity:0.053" fill="#ffe3f9" d="M 49.5,3.5 C 48.2617,3.81001 48.2617,4.31001 49.5,5C 46.5738,5.21779 43.7405,5.71779 41,6.5C 39.8932,5.2881 39.3932,5.62143 39.5,7.5C 37.8561,7.71351 36.3561,7.38017 35,6.5C 32.3623,9.79007 29.529,10.1234 26.5,7.5C 29.6306,5.28326 33.1306,3.61659 37,2.5C 38.3985,3.05085 39.7318,3.38419 41,3.5C 42.3159,0.972034 43.4826,0.972034 44.5,3.5C 46.3163,2.26506 47.983,2.26506 49.5,3.5 Z"/></g>
<g><path style="opacity:0.194" fill="#ffa9e9" d="M 76.5,24.5 C 74.2712,23.9447 72.6046,22.6114 71.5,20.5C 61.4779,13.8613 50.4779,11.3613 38.5,13C 37.1416,13.9344 35.8083,14.7677 34.5,15.5C 28.2732,18.0569 23.6065,22.3902 20.5,28.5C 19.8826,28.6107 19.3826,28.944 19,29.5C 18.5034,31.8098 18.3367,34.1432 18.5,36.5C 18.5,41.8333 18.5,47.1667 18.5,52.5C 16.5066,50.7889 14.6733,48.7889 13,46.5C 11.5548,43.2892 11.0548,40.1225 11.5,37C 13.8188,31.5257 16.4855,26.359 19.5,21.5C 22.2843,17.7291 25.9509,15.0625 30.5,13.5C 43.4904,9.25715 56.3237,9.92381 69,15.5C 73.1634,17.1594 75.6634,20.1594 76.5,24.5 Z"/></g>
<g><path style="opacity:0.073" fill="#ffe8fa" d="M 26.5,7.5 C 22.0289,11.2556 17.6956,15.2556 13.5,19.5C 11.0053,20.9895 8.67195,22.6561 6.5,24.5C 5.5,24.5 4.5,24.5 3.5,24.5C 6.41862,17.2471 11.4186,11.9137 18.5,8.5C 20.9363,8.68299 23.103,8.01632 25,6.5C 25.3826,7.05596 25.8826,7.38929 26.5,7.5 Z"/></g>
<g><path style="opacity:0.098" fill="#ffd6f5" d="M 68.5,7.5 C 73.0233,11.2673 77.3566,15.2673 81.5,19.5C 81.5,20.1667 81.5,20.8333 81.5,21.5C 78.2104,19.3833 75.0437,17.05 72,14.5C 67.1628,12.4147 62.4961,10.0814 58,7.5C 56.4345,6.9394 55.1011,7.60607 54,9.5C 50.0033,7.25185 45.8366,6.91851 41.5,8.5C 41.1583,7.66175 40.4916,7.32842 39.5,7.5C 39.3932,5.62143 39.8932,5.2881 41,6.5C 43.7405,5.71779 46.5738,5.21779 49.5,5C 48.2617,4.31001 48.2617,3.81001 49.5,3.5C 50.7498,3.42265 51.5831,2.75598 52,1.5C 52.6667,2.16667 53.3333,2.83333 54,3.5C 55.2682,3.38419 56.6015,3.05085 58,2.5C 61.8694,3.61659 65.3694,5.28326 68.5,7.5 Z"/></g>
<g><path style="opacity:0.241" fill="#ff9de6" d="M 76.5,24.5 C 78.2108,29.0636 79.5441,33.7303 80.5,38.5C 80.9767,42.1398 79.9767,45.1398 77.5,47.5C 77.9926,45.1944 78.3259,42.861 78.5,40.5C 79.4124,39.2618 79.5791,37.9285 79,36.5C 77.2228,34.3171 75.7228,31.9838 74.5,29.5C 71.4228,23.7571 66.7562,19.5904 60.5,17C 52.5442,14.0041 44.5442,13.8374 36.5,16.5C 35.5836,16.4573 34.9169,16.1239 34.5,15.5C 35.8083,14.7677 37.1416,13.9344 38.5,13C 50.4779,11.3613 61.4779,13.8613 71.5,20.5C 72.6046,22.6114 74.2712,23.9447 76.5,24.5 Z"/></g>
<g><path style="opacity:0.071" fill="#ffebf9" d="M 76.5,8.5 C 83.1667,11.8333 88.1667,16.8333 91.5,23.5C 87.984,22.5361 84.6507,21.2028 81.5,19.5C 77.3566,15.2673 73.0233,11.2673 68.5,7.5C 69.1174,7.38929 69.6174,7.05596 70,6.5C 71.897,8.01632 74.0637,8.68299 76.5,8.5 Z"/></g>
<g><path style="opacity:0.272" fill="#ff8ce0" d="M 74.5,29.5 C 73.1667,29.8333 71.8333,30.1667 70.5,30.5C 71.127,25.2924 68.7937,22.7924 63.5,23C 60.2596,17.7585 56.5929,17.2585 52.5,21.5C 52.1667,21.5 51.8333,21.5 51.5,21.5C 51.8039,18.7673 50.6372,17.1006 48,16.5C 45.6667,17.8333 43.3333,19.1667 41,20.5C 38.439,18.6562 35.6057,18.1562 32.5,19C 31.8095,20.0674 31.3095,21.2341 31,22.5C 27.8067,23.7137 25.3067,25.7137 23.5,28.5C 22.5,28.5 21.5,28.5 20.5,28.5C 23.6065,22.3902 28.2732,18.0569 34.5,15.5C 34.9169,16.1239 35.5836,16.4573 36.5,16.5C 44.5442,13.8374 52.5442,14.0041 60.5,17C 66.7562,19.5904 71.4228,23.7571 74.5,29.5 Z"/></g>
<g><path style="opacity:0.137" fill="#ffbfef" d="M 81.5,21.5 C 82.6002,22.5585 83.9336,23.3918 85.5,24C 85.1667,24.3333 84.8333,24.6667 84.5,25C 86.6988,27.328 88.3655,29.9947 89.5,33C 90.3436,44.4583 85.677,53.625 75.5,60.5C 75.9088,56.1235 76.5755,51.7902 77.5,47.5C 79.9767,45.1398 80.9767,42.1398 80.5,38.5C 79.5441,33.7303 78.2108,29.0636 76.5,24.5C 75.6634,20.1594 73.1634,17.1594 69,15.5C 56.3237,9.92381 43.4904,9.25715 30.5,13.5C 33.9389,11.3862 37.6055,9.71949 41.5,8.5C 45.8366,6.91851 50.0033,7.25185 54,9.5C 55.1011,7.60607 56.4345,6.9394 58,7.5C 62.4961,10.0814 67.1628,12.4147 72,14.5C 75.0437,17.05 78.2104,19.3833 81.5,21.5 Z"/></g>
<g><path style="opacity:0.145" fill="#ffc9f1" d="M 39.5,7.5 C 40.4916,7.32842 41.1583,7.66175 41.5,8.5C 37.6055,9.71949 33.9389,11.3862 30.5,13.5C 25.9509,15.0625 22.2843,17.7291 19.5,21.5C 17.323,21.5861 15.323,22.2528 13.5,23.5C 12.9611,26.1664 11.6278,28.3331 9.5,30C 10.8146,31.3946 10.4812,32.3946 8.5,33C 9.4453,34.9115 9.4453,36.9115 8.5,39C 8.7055,40.8652 9.37217,42.5319 10.5,44C 10.3552,44.772 10.0219,45.4387 9.5,46C 12.2404,50.6511 15.5737,54.8178 19.5,58.5C 19.5,58.8333 19.5,59.1667 19.5,59.5C 19.5,59.8333 19.5,60.1667 19.5,60.5C 13.109,56.6103 8.77566,51.1103 6.5,44C 6.60923,41.1935 6.94256,38.3601 7.5,35.5C 7.02335,34.5224 6.35668,33.6891 5.5,33C 6.6345,29.9947 8.30117,27.328 10.5,25C 10.1667,24.6667 9.83333,24.3333 9.5,24C 10.5634,22.8118 11.8967,22.3118 13.5,22.5C 13.5,21.5 13.5,20.5 13.5,19.5C 17.6956,15.2556 22.0289,11.2556 26.5,7.5C 29.529,10.1234 32.3623,9.79007 35,6.5C 36.3561,7.38017 37.8561,7.71351 39.5,7.5 Z"/></g>
<g><path style="opacity:1" fill="#ffb48e" d="M 51.5,21.5 C 41.5807,20.4741 32.9141,23.1407 25.5,29.5C 23.6404,34.9262 25.6404,36.9262 31.5,35.5C 31.5,35.8333 31.5,36.1667 31.5,36.5C 28.8333,36.5 26.1667,36.5 23.5,36.5C 23.5,33.8333 23.5,31.1667 23.5,28.5C 25.3067,25.7137 27.8067,23.7137 31,22.5C 31.3095,21.2341 31.8095,20.0674 32.5,19C 35.6057,18.1562 38.439,18.6562 41,20.5C 43.3333,19.1667 45.6667,17.8333 48,16.5C 50.6372,17.1006 51.8039,18.7673 51.5,21.5 Z"/></g>
<g><path style="opacity:1" fill="#fdd1b6" d="M 51.5,21.5 C 51.8333,21.5 52.1667,21.5 52.5,21.5C 55.9419,20.8283 58.6086,21.8283 60.5,24.5C 53.8833,23.411 47.2166,23.2443 40.5,24C 38.968,24.6995 37.968,25.8662 37.5,27.5C 38.7472,29.323 39.4139,31.323 39.5,33.5C 44.3768,34.1876 48.7101,33.0209 52.5,30C 55.146,29.5026 57.8127,29.3359 60.5,29.5C 60.5,28.1667 60.5,26.8333 60.5,25.5C 64.0289,26.6092 64.3622,28.4425 61.5,31C 57.2788,31.3745 53.2788,32.3745 49.5,34C 46.1832,34.4983 42.8499,34.665 39.5,34.5C 36.3958,31.6118 33.7291,31.9451 31.5,35.5C 25.6404,36.9262 23.6404,34.9262 25.5,29.5C 32.9141,23.1407 41.5807,20.4741 51.5,21.5 Z"/></g>
<g><path style="opacity:1" fill="#ffb58b" d="M 70.5,30.5 C 69.8826,30.3893 69.3826,30.056 69,29.5C 65.263,33.082 60.763,34.9154 55.5,35C 49.9836,35.8174 44.6503,35.6507 39.5,34.5C 42.8499,34.665 46.1832,34.4983 49.5,34C 53.2788,32.3745 57.2788,31.3745 61.5,31C 64.3622,28.4425 64.0289,26.6092 60.5,25.5C 60.5,25.1667 60.5,24.8333 60.5,24.5C 58.6086,21.8283 55.9419,20.8283 52.5,21.5C 56.5929,17.2585 60.2596,17.7585 63.5,23C 68.7937,22.7924 71.127,25.2924 70.5,30.5 Z"/></g>
<g><path style="opacity:0.998" fill="#ff8f60" d="M 20.5,28.5 C 21.5,28.5 22.5,28.5 23.5,28.5C 23.5,31.1667 23.5,33.8333 23.5,36.5C 23.1667,36.5 22.8333,36.5 22.5,36.5C 21.1667,36.5 19.8333,36.5 18.5,36.5C 18.3367,34.1432 18.5034,31.8098 19,29.5C 19.3826,28.944 19.8826,28.6107 20.5,28.5 Z"/></g>
<g><path style="opacity:1" fill="#fce7da" d="M 60.5,24.5 C 60.5,24.8333 60.5,25.1667 60.5,25.5C 60.5,26.8333 60.5,28.1667 60.5,29.5C 57.8127,29.3359 55.146,29.5026 52.5,30C 48.7101,33.0209 44.3768,34.1876 39.5,33.5C 39.4139,31.323 38.7472,29.323 37.5,27.5C 37.968,25.8662 38.968,24.6995 40.5,24C 47.2166,23.2443 53.8833,23.411 60.5,24.5 Z"/></g>
<g><path style="opacity:0.019" fill="#fff9fc" d="M 3.5,24.5 C 4.5,24.5 5.5,24.5 6.5,24.5C 5.73747,25.2679 4.73747,25.7679 3.5,26C 4.16667,26.3333 4.83333,26.6667 5.5,27C 2.55745,28.4591 2.22412,30.1257 4.5,32C 3.5,32.3333 2.5,32.6667 1.5,33C 2.83333,33.6667 2.83333,34.3333 1.5,35C 2.16667,35.3333 2.83333,35.6667 3.5,36C 2.16667,37.6667 2.16667,39.3333 3.5,41C 2.83333,41.3333 2.16667,41.6667 1.5,42C 2.83333,42.6667 2.83333,43.3333 1.5,44C 2.16667,44.3333 2.83333,44.6667 3.5,45C 1.68231,48.3873 2.68231,50.3873 6.5,51C 5.26253,51.2321 4.26253,51.7321 3.5,52.5C 1.77567,49.6552 0.442336,46.6552 -0.5,43.5C -0.5,40.1667 -0.5,36.8333 -0.5,33.5C 0.442336,30.3448 1.77567,27.3448 3.5,24.5 Z"/></g>
<g><path style="opacity:1" fill="#fd9a6a" d="M 70.5,30.5 C 71.8333,30.1667 73.1667,29.8333 74.5,29.5C 75.7228,31.9838 77.2228,34.3171 79,36.5C 79.5791,37.9285 79.4124,39.2618 78.5,40.5C 77.8333,40.5 77.1667,40.5 76.5,40.5C 74.9724,39.6908 73.3057,39.0241 71.5,38.5C 71.1667,38.5 70.8333,38.5 70.5,38.5C 68.6976,37.5418 66.6976,36.8751 64.5,36.5C 63.8333,36.5 63.1667,36.5 62.5,36.5C 61.5,36.5 60.5,36.5 59.5,36.5C 56.5,36.5 53.5,36.5 50.5,36.5C 50.8064,39.3854 50.4731,42.0521 49.5,44.5C 49.5,41.8333 49.5,39.1667 49.5,36.5C 48.5,36.5 47.5,36.5 46.5,36.5C 46.5,39.8333 46.5,43.1667 46.5,46.5C 45.5386,44.7354 45.2053,42.7354 45.5,40.5C 45.5,39.1667 45.5,37.8333 45.5,36.5C 42.5,36.5 39.5,36.5 36.5,36.5C 35.1667,36.5 33.8333,36.5 32.5,36.5C 32.5,40.1667 32.5,43.8333 32.5,47.5C 32.1667,47.5 31.8333,47.5 31.5,47.5C 31.5,43.8333 31.5,40.1667 31.5,36.5C 31.5,36.1667 31.5,35.8333 31.5,35.5C 33.7291,31.9451 36.3958,31.6118 39.5,34.5C 44.6503,35.6507 49.9836,35.8174 55.5,35C 60.763,34.9154 65.263,33.082 69,29.5C 69.3826,30.056 69.8826,30.3893 70.5,30.5 Z"/></g>
<g><path style="opacity:0.019" fill="#fff9fc" d="M 91.5,24.5 C 93.2243,27.3448 94.5577,30.3448 95.5,33.5C 95.5,36.8333 95.5,40.1667 95.5,43.5C 94.5577,46.6552 93.2243,49.6552 91.5,52.5C 90.7375,51.7321 89.7375,51.2321 88.5,51C 92.3177,50.3873 93.3177,48.3873 91.5,45C 92.1667,44.6667 92.8333,44.3333 93.5,44C 92.1667,43.3333 92.1667,42.6667 93.5,42C 92.8333,41.6667 92.1667,41.3333 91.5,41C 92.8333,39.3333 92.8333,37.6667 91.5,36C 92.1667,35.6667 92.8333,35.3333 93.5,35C 92.1667,34.3333 92.1667,33.6667 93.5,33C 90.0569,32.7787 89.7236,31.7787 92.5,30C 91.8333,28.6667 90.8333,27.6667 89.5,27C 91.8776,26.0255 91.5443,25.3589 88.5,25C 89.448,24.5172 90.448,24.3505 91.5,24.5 Z"/></g>
<g><path style="opacity:0.078" fill="#ffe1f8" d="M 13.5,19.5 C 13.5,20.5 13.5,21.5 13.5,22.5C 11.8967,22.3118 10.5634,22.8118 9.5,24C 9.83333,24.3333 10.1667,24.6667 10.5,25C 8.30117,27.328 6.6345,29.9947 5.5,33C 6.35668,33.6891 7.02335,34.5224 7.5,35.5C 6.94256,38.3601 6.60923,41.1935 6.5,44C 8.77566,51.1103 13.109,56.6103 19.5,60.5C 19.6621,62.5273 19.4955,64.5273 19,66.5C 17.8545,65.3157 16.6879,65.3157 15.5,66.5C 9.69288,63.3612 5.69288,58.6945 3.5,52.5C 4.26253,51.7321 5.26253,51.2321 6.5,51C 2.68231,50.3873 1.68231,48.3873 3.5,45C 2.83333,44.6667 2.16667,44.3333 1.5,44C 2.83333,43.3333 2.83333,42.6667 1.5,42C 2.16667,41.6667 2.83333,41.3333 3.5,41C 2.16667,39.3333 2.16667,37.6667 3.5,36C 2.83333,35.6667 2.16667,35.3333 1.5,35C 2.83333,34.3333 2.83333,33.6667 1.5,33C 2.5,32.6667 3.5,32.3333 4.5,32C 2.22412,30.1257 2.55745,28.4591 5.5,27C 4.83333,26.6667 4.16667,26.3333 3.5,26C 4.73747,25.7679 5.73747,25.2679 6.5,24.5C 8.67195,22.6561 11.0053,20.9895 13.5,19.5 Z"/></g>
<g><path style="opacity:0.148" fill="#ffbcee" d="M 19.5,21.5 C 16.4855,26.359 13.8188,31.5257 11.5,37C 11.0548,40.1225 11.5548,43.2892 13,46.5C 14.6733,48.7889 16.5066,50.7889 18.5,52.5C 19.4614,54.2646 19.7947,56.2646 19.5,58.5C 15.5737,54.8178 12.2404,50.6511 9.5,46C 10.0219,45.4387 10.3552,44.772 10.5,44C 9.37217,42.5319 8.7055,40.8652 8.5,39C 9.4453,36.9115 9.4453,34.9115 8.5,33C 10.4812,32.3946 10.8146,31.3946 9.5,30C 11.6278,28.3331 12.9611,26.1664 13.5,23.5C 15.323,22.2528 17.323,21.5861 19.5,21.5 Z"/></g>
<g><path style="opacity:0.078" fill="#ffe3f9" d="M 81.5,19.5 C 84.6507,21.2028 87.984,22.5361 91.5,23.5C 91.5,23.8333 91.5,24.1667 91.5,24.5C 90.448,24.3505 89.448,24.5172 88.5,25C 91.5443,25.3589 91.8776,26.0255 89.5,27C 90.8333,27.6667 91.8333,28.6667 92.5,30C 89.7236,31.7787 90.0569,32.7787 93.5,33C 92.1667,33.6667 92.1667,34.3333 93.5,35C 92.8333,35.3333 92.1667,35.6667 91.5,36C 92.8333,37.6667 92.8333,39.3333 91.5,41C 92.1667,41.3333 92.8333,41.6667 93.5,42C 92.1667,42.6667 92.1667,43.3333 93.5,44C 92.8333,44.3333 92.1667,44.6667 91.5,45C 93.3177,48.3873 92.3177,50.3873 88.5,51C 89.7375,51.2321 90.7375,51.7321 91.5,52.5C 88.1667,60.5 82.5,66.1667 74.5,69.5C 74.5079,66.4552 74.8413,63.4552 75.5,60.5C 85.677,53.625 90.3436,44.4583 89.5,33C 88.3655,29.9947 86.6988,27.328 84.5,25C 84.8333,24.6667 85.1667,24.3333 85.5,24C 83.9336,23.3918 82.6002,22.5585 81.5,21.5C 81.5,20.8333 81.5,20.1667 81.5,19.5 Z"/></g>
<g><path style="opacity:1" fill="#ef5814" d="M 22.5,36.5 C 22.8333,36.5 23.1667,36.5 23.5,36.5C 26.1667,36.5 28.8333,36.5 31.5,36.5C 31.5,40.1667 31.5,43.8333 31.5,47.5C 29.5281,51.1051 26.8615,54.1051 23.5,56.5C 23.4728,49.8144 23.1395,43.1477 22.5,36.5 Z"/></g>
<g><path style="opacity:1" fill="#d9460b" d="M 59.5,36.5 C 59.7678,38.099 59.4345,39.4324 58.5,40.5C 56.629,40.8588 55.129,41.8588 54,43.5C 51.7066,46.206 49.8732,49.206 48.5,52.5C 45.2376,50.1203 41.5709,49.1203 37.5,49.5C 39.9416,46.271 42.6082,43.271 45.5,40.5C 45.2053,42.7354 45.5386,44.7354 46.5,46.5C 49.0307,49.3785 50.0307,48.7119 49.5,44.5C 50.4731,42.0521 50.8064,39.3854 50.5,36.5C 53.5,36.5 56.5,36.5 59.5,36.5 Z"/></g>
<g><path style="opacity:1" fill="#fedcc9" d="M 36.5,36.5 C 36.8204,39.8984 36.487,43.2317 35.5,46.5C 34.5832,47.1272 33.5832,47.4606 32.5,47.5C 32.5,43.8333 32.5,40.1667 32.5,36.5C 33.8333,36.5 35.1667,36.5 36.5,36.5 Z"/></g>
<g><path style="opacity:1" fill="#cf3e0e" d="M 58.5,40.5 C 58.5,48.1667 58.5,55.8333 58.5,63.5C 58.1667,63.5 57.8333,63.5 57.5,63.5C 56.2058,64.2899 55.0391,65.2899 54,66.5C 53.8138,63.9644 53.3138,61.631 52.5,59.5C 51.937,56.7052 50.6037,54.3718 48.5,52.5C 49.8732,49.206 51.7066,46.206 54,43.5C 55.129,41.8588 56.629,40.8588 58.5,40.5 Z"/></g>
<g><path style="opacity:1" fill="#fee0d3" d="M 49.5,44.5 C 50.0307,48.7119 49.0307,49.3785 46.5,46.5C 46.5,43.1667 46.5,39.8333 46.5,36.5C 47.5,36.5 48.5,36.5 49.5,36.5C 49.5,39.1667 49.5,41.8333 49.5,44.5 Z"/></g>
<g><path style="opacity:1" fill="#c8351e" d="M 64.5,36.5 C 66.6976,36.8751 68.6976,37.5418 70.5,38.5C 69.5878,44.1313 68.9211,49.798 68.5,55.5C 68.5,56.1667 68.5,56.8333 68.5,57.5C 67.5275,59.1392 66.1942,60.4726 64.5,61.5C 65.3315,53.0954 65.3315,44.762 64.5,36.5 Z"/></g>
<g><path style="opacity:1" fill="#db6fc4" d="M 62.5,36.5 C 63.1667,36.5 63.8333,36.5 64.5,36.5C 65.3315,44.762 65.3315,53.0954 64.5,61.5C 63.5975,64.3915 63.2641,67.3915 63.5,70.5C 63.1667,70.5 62.8333,70.5 62.5,70.5C 62.8205,65.3054 62.4872,60.3054 61.5,55.5C 62.014,49.1783 62.3473,42.845 62.5,36.5 Z"/></g>
<g><path style="opacity:0.998" fill="#eb6567" d="M 76.5,40.5 C 77.1667,40.5 77.8333,40.5 78.5,40.5C 78.3259,42.861 77.9926,45.1944 77.5,47.5C 76.5755,51.7902 75.9088,56.1235 75.5,60.5C 74.8413,63.4552 74.5079,66.4552 74.5,69.5C 74.1667,70.1667 73.8333,70.8333 73.5,71.5C 72.7724,74.0795 72.2724,76.7462 72,79.5C 71.5831,80.756 70.7498,81.4226 69.5,81.5C 70.3922,75.1471 71.3922,68.8138 72.5,62.5C 73.9266,55.1796 75.2599,47.8462 76.5,40.5 Z"/></g>
<g><path style="opacity:1" fill="#e3551a" d="M 36.5,36.5 C 39.5,36.5 42.5,36.5 45.5,36.5C 45.5,37.8333 45.5,39.1667 45.5,40.5C 42.6082,43.271 39.9416,46.271 37.5,49.5C 30.2447,52.6937 27.2447,58.027 28.5,65.5C 28.9752,67.7837 29.9752,69.7837 31.5,71.5C 28.3128,73.3438 26.3128,76.0105 25.5,79.5C 24.4021,73.0207 23.7354,66.3541 23.5,59.5C 23.5,58.5 23.5,57.5 23.5,56.5C 26.8615,54.1051 29.5281,51.1051 31.5,47.5C 31.8333,47.5 32.1667,47.5 32.5,47.5C 33.5832,47.4606 34.5832,47.1272 35.5,46.5C 36.487,43.2317 36.8204,39.8984 36.5,36.5 Z"/></g>
<g><path style="opacity:1" fill="#fce2de" d="M 59.5,36.5 C 60.5,36.5 61.5,36.5 62.5,36.5C 62.3473,42.845 62.014,49.1783 61.5,55.5C 61.5,57.1667 61.5,58.8333 61.5,60.5C 60.8999,61.9002 59.8999,62.9002 58.5,63.5C 58.5,55.8333 58.5,48.1667 58.5,40.5C 59.4345,39.4324 59.7678,38.099 59.5,36.5 Z"/></g>
<g><path style="opacity:1" fill="#fde3dc" d="M 37.5,49.5 C 41.5709,49.1203 45.2376,50.1203 48.5,52.5C 50.6037,54.3718 51.937,56.7052 52.5,59.5C 52.5,61.8333 52.5,64.1667 52.5,66.5C 50.1667,67.1667 47.8333,67.8333 45.5,68.5C 43.7157,64.8574 44.7157,62.1907 48.5,60.5C 44.3838,60.2663 41.7172,58.2663 40.5,54.5C 39.0499,55.8498 38.3832,57.5165 38.5,59.5C 36.2646,59.2053 34.2646,59.5386 32.5,60.5C 31.1667,60.5 29.8333,60.5 28.5,60.5C 28.5,62.1667 28.5,63.8333 28.5,65.5C 27.2447,58.027 30.2447,52.6937 37.5,49.5 Z"/></g>
<g><path style="opacity:1" fill="#c02a28" d="M 71.5,38.5 C 73.3057,39.0241 74.9724,39.6908 76.5,40.5C 75.2599,47.8462 73.9266,55.1796 72.5,62.5C 70.6921,61.0821 70.0254,59.0821 70.5,56.5C 71.2412,50.5293 71.5745,44.5293 71.5,38.5 Z"/></g>
<g><path style="opacity:1" fill="#de5a72" d="M 70.5,38.5 C 70.8333,38.5 71.1667,38.5 71.5,38.5C 71.5745,44.5293 71.2412,50.5293 70.5,56.5C 70.1667,56.5 69.8333,56.5 69.5,56.5C 69.5,55.8333 69.1667,55.5 68.5,55.5C 68.9211,49.798 69.5878,44.1313 70.5,38.5 Z"/></g>
<g><path style="opacity:0.952" fill="#ffdccd" d="M 18.5,36.5 C 19.8333,36.5 21.1667,36.5 22.5,36.5C 23.1395,43.1477 23.4728,49.8144 23.5,56.5C 23.5,57.5 23.5,58.5 23.5,59.5C 22.1667,59.5 20.8333,59.5 19.5,59.5C 19.5,59.1667 19.5,58.8333 19.5,58.5C 19.7947,56.2646 19.4614,54.2646 18.5,52.5C 18.5,47.1667 18.5,41.8333 18.5,36.5 Z"/></g>
<g><path style="opacity:1" fill="#d64d1b" d="M 45.5,68.5 C 45.5654,68.9382 45.3988,69.2716 45,69.5C 43.414,68.624 41.914,67.624 40.5,66.5C 39.086,67.624 37.586,68.624 36,69.5C 35.3486,67.765 35.5153,66.0983 36.5,64.5C 35.4513,62.7844 34.118,61.4511 32.5,60.5C 34.2646,59.5386 36.2646,59.2053 38.5,59.5C 38.3832,57.5165 39.0499,55.8498 40.5,54.5C 41.7172,58.2663 44.3838,60.2663 48.5,60.5C 44.7157,62.1907 43.7157,64.8574 45.5,68.5 Z"/></g>
<g><path style="opacity:1" fill="#bc2737" d="M 68.5,57.5 C 67.6161,62.804 66.9494,68.1374 66.5,73.5C 65.2502,73.5774 64.4169,74.244 64,75.5C 63.5065,73.8659 63.3398,72.1992 63.5,70.5C 63.2641,67.3915 63.5975,64.3915 64.5,61.5C 66.1942,60.4726 67.5275,59.1392 68.5,57.5 Z"/></g>
<g><path style="opacity:1" fill="#d7598e" d="M 68.5,55.5 C 69.1667,55.5 69.5,55.8333 69.5,56.5C 69.3289,64.5368 68.6622,72.5368 67.5,80.5C 67.5068,82.3693 67.8401,84.036 68.5,85.5C 67.4324,86.4345 66.099,86.7678 64.5,86.5C 65.1022,82.1302 65.7689,77.7969 66.5,73.5C 66.9494,68.1374 67.6161,62.804 68.5,57.5C 68.5,56.8333 68.5,56.1667 68.5,55.5 Z"/></g>
<g><path style="opacity:0.831" fill="#fae2e4" d="M 19.5,59.5 C 20.8333,59.5 22.1667,59.5 23.5,59.5C 23.7354,66.3541 24.4021,73.0207 25.5,79.5C 25.5,82.5 25.5,85.5 25.5,88.5C 24.1667,88.5 22.8333,88.5 21.5,88.5C 21.5,87.5 21.5,86.5 21.5,85.5C 21.8168,81.2984 21.4834,77.2984 20.5,73.5C 19.9565,70.3004 18.2898,67.9671 15.5,66.5C 16.6879,65.3157 17.8545,65.3157 19,66.5C 19.4955,64.5273 19.6621,62.5273 19.5,60.5C 19.5,60.1667 19.5,59.8333 19.5,59.5 Z"/></g>
<g><path style="opacity:1" fill="#f8dfe1" d="M 32.5,60.5 C 34.118,61.4511 35.4513,62.7844 36.5,64.5C 35.5153,66.0983 35.3486,67.765 36,69.5C 37.586,68.624 39.086,67.624 40.5,66.5C 41.914,67.624 43.414,68.624 45,69.5C 45.3988,69.2716 45.5654,68.9382 45.5,68.5C 47.8333,67.8333 50.1667,67.1667 52.5,66.5C 49.3882,73.3895 44.0548,76.0561 36.5,74.5C 34.6675,73.7515 33.0009,72.7515 31.5,71.5C 29.9752,69.7837 28.9752,67.7837 28.5,65.5C 28.5,63.8333 28.5,62.1667 28.5,60.5C 29.8333,60.5 31.1667,60.5 32.5,60.5 Z"/></g>
<g><path style="opacity:1" fill="#b51d41" d="M 69.5,56.5 C 69.8333,56.5 70.1667,56.5 70.5,56.5C 70.0254,59.0821 70.6921,61.0821 72.5,62.5C 71.3922,68.8138 70.3922,75.1471 69.5,81.5C 68.7659,82.7079 68.4326,84.0413 68.5,85.5C 67.8401,84.036 67.5068,82.3693 67.5,80.5C 68.6622,72.5368 69.3289,64.5368 69.5,56.5 Z"/></g>
<g><path style="opacity:1" fill="#d56fd8" d="M 61.5,55.5 C 62.4872,60.3054 62.8205,65.3054 62.5,70.5C 62.5,74.1667 62.5,77.8333 62.5,81.5C 62.0195,84.0783 61.0195,86.4116 59.5,88.5C 59.6255,79.1209 60.2922,69.7876 61.5,60.5C 61.5,58.8333 61.5,57.1667 61.5,55.5 Z"/></g>
<g><path style="opacity:1" fill="#e9c0d3" d="M 61.5,60.5 C 60.2922,69.7876 59.6255,79.1209 59.5,88.5C 58.5,88.5 57.5,88.5 56.5,88.5C 57.2197,82.8623 57.553,77.1956 57.5,71.5C 57.5,68.8333 57.5,66.1667 57.5,63.5C 57.8333,63.5 58.1667,63.5 58.5,63.5C 59.8999,62.9002 60.8999,61.9002 61.5,60.5 Z"/></g>
<g><path style="opacity:1" fill="#c4321f" d="M 52.5,59.5 C 53.3138,61.631 53.8138,63.9644 54,66.5C 55.0391,65.2899 56.2058,64.2899 57.5,63.5C 57.5,66.1667 57.5,68.8333 57.5,71.5C 54.5001,73.6676 52.0001,76.3343 50,79.5C 49.7508,78.376 49.2508,77.376 48.5,76.5C 47.8933,76.6236 47.56,76.9569 47.5,77.5C 46.5041,77.4142 45.6708,77.7476 45,78.5C 44.5017,81.8168 44.335,85.1501 44.5,88.5C 42.1667,88.5 39.8333,88.5 37.5,88.5C 37.5,85.1667 37.5,81.8333 37.5,78.5C 36.209,78.7373 35.209,78.404 34.5,77.5C 35.9063,77.0269 36.573,76.0269 36.5,74.5C 44.0548,76.0561 49.3882,73.3895 52.5,66.5C 52.5,64.1667 52.5,61.8333 52.5,59.5 Z"/></g>
<g><path style="opacity:1" fill="#bb2833" d="M 57.5,71.5 C 57.553,77.1956 57.2197,82.8623 56.5,88.5C 53.8333,88.5 51.1667,88.5 48.5,88.5C 48.815,84.6286 48.4816,80.9619 47.5,77.5C 47.56,76.9569 47.8933,76.6236 48.5,76.5C 49.2508,77.376 49.7508,78.376 50,79.5C 52.0001,76.3343 54.5001,73.6676 57.5,71.5 Z"/></g>
<g><path style="opacity:1" fill="#ce3d0c" d="M 31.5,71.5 C 33.0009,72.7515 34.6675,73.7515 36.5,74.5C 36.573,76.0269 35.9063,77.0269 34.5,77.5C 33.5184,80.9619 33.185,84.6286 33.5,88.5C 31.5,88.5 29.5,88.5 27.5,88.5C 26.8333,88.5 26.1667,88.5 25.5,88.5C 25.5,85.5 25.5,82.5 25.5,79.5C 26.3128,76.0105 28.3128,73.3438 31.5,71.5 Z"/></g>
<g><path style="opacity:1" fill="#e5b5c7" d="M 47.5,77.5 C 48.4816,80.9619 48.815,84.6286 48.5,88.5C 47.1667,88.5 45.8333,88.5 44.5,88.5C 44.335,85.1501 44.5017,81.8168 45,78.5C 45.6708,77.7476 46.5041,77.4142 47.5,77.5 Z"/></g>
<g><path style="opacity:1" fill="#b6214e" d="M 62.5,70.5 C 62.8333,70.5 63.1667,70.5 63.5,70.5C 63.3398,72.1992 63.5065,73.8659 64,75.5C 64.4169,74.244 65.2502,73.5774 66.5,73.5C 65.7689,77.7969 65.1022,82.1302 64.5,86.5C 64.44,87.0431 64.1067,87.3764 63.5,87.5C 62.5344,85.604 62.2011,83.604 62.5,81.5C 62.5,77.8333 62.5,74.1667 62.5,70.5 Z"/></g>
<g><path style="opacity:0.157" fill="#ffdcf6" d="M 10.5,80.5 C 10.5,81.1667 10.5,81.8333 10.5,82.5C 7.72766,82.5952 5.72766,83.9285 4.5,86.5C 6.64732,88.6632 9.31399,89.6632 12.5,89.5C 12.9175,90.2216 13.5842,90.7216 14.5,91C 31.4221,93.3868 48.4221,94.0535 65.5,93C 73.3081,92.314 80.9748,90.9807 88.5,89C 91.0157,84.9527 89.6824,82.786 84.5,82.5C 84.5,81.8333 84.5,81.1667 84.5,80.5C 88.3246,81.4411 91.9913,82.7745 95.5,84.5C 95.5,85.5 95.5,86.5 95.5,87.5C 89.5948,90.6515 83.2614,92.4848 76.5,93C 53.3949,95.4808 30.3949,94.8141 7.5,91C 4.69024,90.0936 2.02357,88.9269 -0.5,87.5C -0.5,86.5 -0.5,85.5 -0.5,84.5C 3.00871,82.7745 6.67538,81.4411 10.5,80.5 Z"/></g>
<g><path style="opacity:1" fill="#fcd5c3" d="M 73.5,71.5 C 74.9649,72.4057 75.9649,73.739 76.5,75.5C 78.7662,76.3142 81.0995,76.8142 83.5,77C 84.3366,78.0113 84.67,79.1779 84.5,80.5C 84.5,81.1667 84.5,81.8333 84.5,82.5C 84.5,83.1667 84.5,83.8333 84.5,84.5C 83.2867,86.676 81.62,87.0093 79.5,85.5C 76.9764,87.1869 74.3097,88.5202 71.5,89.5C 70.9744,87.7697 69.9744,86.4363 68.5,85.5C 68.4326,84.0413 68.7659,82.7079 69.5,81.5C 70.7498,81.4226 71.5831,80.756 72,79.5C 72.2724,76.7462 72.7724,74.0795 73.5,71.5 Z"/></g>
<g><path style="opacity:1" fill="#fdc2a1" d="M 20.5,73.5 C 21.4834,77.2984 21.8168,81.2984 21.5,85.5C 19.4534,85.5111 17.4534,85.8444 15.5,86.5C 13.3076,86.2427 11.6409,85.2427 10.5,83.5C 10.5,83.1667 10.5,82.8333 10.5,82.5C 10.5,81.8333 10.5,81.1667 10.5,80.5C 11.5,80.5 12.5,80.5 13.5,80.5C 13.281,79.325 13.6143,78.325 14.5,77.5C 16.5168,76.039 18.5168,74.7057 20.5,73.5 Z"/></g>
<g><path style="opacity:0.271" fill="#ffaae9" d="M 10.5,82.5 C 10.5,82.8333 10.5,83.1667 10.5,83.5C 8.65579,84.2039 8.15579,85.5372 9,87.5C 10.3024,88.0848 11.469,88.7515 12.5,89.5C 9.31399,89.6632 6.64732,88.6632 4.5,86.5C 5.72766,83.9285 7.72766,82.5952 10.5,82.5 Z"/></g>
<g><path style="opacity:1" fill="#e9bcca" d="M 34.5,77.5 C 35.209,78.404 36.209,78.7373 37.5,78.5C 37.5,81.8333 37.5,85.1667 37.5,88.5C 36.1667,88.5 34.8333,88.5 33.5,88.5C 33.185,84.6286 33.5184,80.9619 34.5,77.5 Z"/></g>
<g><path style="opacity:0.779" fill="#af40a6" d="M 62.5,81.5 C 62.2011,83.604 62.5344,85.604 63.5,87.5C 64.1067,87.3764 64.44,87.0431 64.5,86.5C 66.099,86.7678 67.4324,86.4345 68.5,85.5C 69.9744,86.4363 70.9744,87.7697 71.5,89.5C 58.1881,90.5707 44.8548,90.7373 31.5,90C 29.9419,89.79 28.6085,89.29 27.5,88.5C 29.5,88.5 31.5,88.5 33.5,88.5C 34.8333,88.5 36.1667,88.5 37.5,88.5C 39.8333,88.5 42.1667,88.5 44.5,88.5C 45.8333,88.5 47.1667,88.5 48.5,88.5C 51.1667,88.5 53.8333,88.5 56.5,88.5C 57.5,88.5 58.5,88.5 59.5,88.5C 61.0195,86.4116 62.0195,84.0783 62.5,81.5 Z"/></g>
<g><path style="opacity:0.42" fill="#f164d1" d="M 10.5,83.5 C 11.6409,85.2427 13.3076,86.2427 15.5,86.5C 17.4534,85.8444 19.4534,85.5111 21.5,85.5C 21.5,86.5 21.5,87.5 21.5,88.5C 22.8333,88.5 24.1667,88.5 25.5,88.5C 26.1667,88.5 26.8333,88.5 27.5,88.5C 28.6085,89.29 29.9419,89.79 31.5,90C 44.8548,90.7373 58.1881,90.5707 71.5,89.5C 74.3097,88.5202 76.9764,87.1869 79.5,85.5C 81.62,87.0093 83.2867,86.676 84.5,84.5C 85.7911,85.5417 85.7911,86.7083 84.5,88C 77.9897,90.1021 71.323,91.4354 64.5,92C 47.0514,93.144 29.7181,92.3107 12.5,89.5C 11.469,88.7515 10.3024,88.0848 9,87.5C 8.15579,85.5372 8.65579,84.2039 10.5,83.5 Z"/></g>
<g><path style="opacity:0.208" fill="#ffa2e7" d="M 84.5,82.5 C 89.6824,82.786 91.0157,84.9527 88.5,89C 80.9748,90.9807 73.3081,92.314 65.5,93C 48.4221,94.0535 31.4221,93.3868 14.5,91C 13.5842,90.7216 12.9175,90.2216 12.5,89.5C 29.7181,92.3107 47.0514,93.144 64.5,92C 71.323,91.4354 77.9897,90.1021 84.5,88C 85.7911,86.7083 85.7911,85.5417 84.5,84.5C 84.5,83.8333 84.5,83.1667 84.5,82.5 Z"/></g>
</svg>
